<svg width="32" height="32" viewBox="0 0 32 32" fill="none" xmlns="http://www.w3.org/2000/svg">
  <!-- Purple gear -->
  <path d="M16 4C18.5 4 20.5 6 20.5 8.5C20.5 9.5 20 10.5 19.5 11L21 12.5C21.5 13 21.5 13.5 21 14L19.5 15.5C20 16 20.5 17 20.5 18C20.5 20.5 18.5 22.5 16 22.5C13.5 22.5 11.5 20.5 11.5 18C11.5 17 12 16 12.5 15.5L11 14C10.5 13.5 10.5 13 11 12.5L12.5 11C12 10.5 11.5 9.5 11.5 8.5C11.5 6 13.5 4 16 4Z" fill="#5A3BB2"/>
  
  <!-- Yellow lightning bolt -->
  <path d="M16 8L14 14H18L16 20L18 14H14L16 8Z" fill="#FFD700"/>
  
  <!-- Center circle -->
  <circle cx="16" cy="16" r="2" fill="#0B0C10"/>
</svg>
