<svg width="400" height="300" viewBox="0 0 400 300" fill="none" xmlns="http://www.w3.org/2000/svg">
  <rect width="400" height="300" fill="#1F2833"/>
  <rect x="50" y="50" width="300" height="200" rx="8" fill="#2D3748"/>
  
  <!-- Dashboard layout -->
  <rect x="70" y="70" width="120" height="80" rx="4" fill="#4A5568"/>
  <rect x="210" y="70" width="120" height="80" rx="4" fill="#4A5568"/>
  <rect x="70" y="170" width="260" height="60" rx="4" fill="#4A5568"/>
  
  <!-- API endpoints -->
  <rect x="80" y="80" width="100" height="20" rx="2" fill="#7F3BFF"/>
  <rect x="80" y="105" width="100" height="20" rx="2" fill="#7F3BFF"/>
  <rect x="80" y="130" width="100" height="20" rx="2" fill="#7F3BFF"/>
  
  <!-- Browser icons -->
  <circle cx="220" cy="85" r="8" fill="#4285F4"/>
  <circle cx="240" cy="85" r="8" fill="#FF6B35"/>
  <circle cx="260" cy="85" r="8" fill="#4285F4"/>
  <circle cx="280" cy="85" r="8" fill="#FF6B35"/>
  
  <!-- Status indicators -->
  <circle cx="220" cy="110" r="4" fill="#38A169"/>
  <circle cx="240" cy="110" r="4" fill="#38A169"/>
  <circle cx="260" cy="110" r="4" fill="#38A169"/>
  <circle cx="280" cy="110" r="4" fill="#38A169"/>
  
  <!-- Test results -->
  <rect x="80" y="180" width="60" height="15" rx="2" fill="#38A169"/>
  <rect x="150" y="180" width="60" height="15" rx="2" fill="#38A169"/>
  <rect x="220" y="180" width="60" height="15" rx="2" fill="#38A169"/>
  <rect x="290" y="180" width="30" height="15" rx="2" fill="#E53E3E"/>
  
  <!-- Animated progress bars -->
  <rect x="80" y="200" width="0" height="8" rx="4" fill="#7F3BFF">
    <animate attributeName="width" values="0;100" dur="2s" repeatCount="indefinite"/>
  </rect>
  <rect x="150" y="200" width="0" height="8" rx="4" fill="#7F3BFF">
    <animate attributeName="width" values="0;100" dur="2.5s" repeatCount="indefinite"/>
  </rect>
  <rect x="220" y="200" width="0" height="8" rx="4" fill="#7F3BFF">
    <animate attributeName="width" values="0;100" dur="1.8s" repeatCount="indefinite"/>
  </rect>
</svg>
