<svg width="400" height="300" viewBox="0 0 400 300" fill="none" xmlns="http://www.w3.org/2000/svg">
  <rect width="400" height="300" fill="#1F2833"/>
  <rect x="50" y="50" width="300" height="200" rx="8" fill="#2D3748"/>
  
  <!-- Device mockups -->
  <rect x="80" y="80" width="80" height="120" rx="8" fill="#4A5568"/>
  <rect x="180" y="80" width="80" height="120" rx="8" fill="#4A5568"/>
  <rect x="280" y="80" width="80" height="120" rx="8" fill="#4A5568"/>
  
  <!-- Screen content -->
  <rect x="85" y="85" width="70" height="110" rx="4" fill="#2D3748"/>
  <rect x="185" y="85" width="70" height="110" rx="4" fill="#2D3748"/>
  <rect x="285" y="85" width="70" height="110" rx="4" fill="#2D3748"/>
  
  <!-- UI elements -->
  <rect x="90" y="90" width="60" height="20" rx="2" fill="#7F3BFF"/>
  <rect x="90" y="115" width="60" height="15" rx="2" fill="#4A5568"/>
  <rect x="90" y="135" width="60" height="15" rx="2" fill="#4A5568"/>
  <rect x="90" y="155" width="60" height="15" rx="2" fill="#4A5568"/>
  
  <!-- Visual difference indicators -->
  <rect x="190" y="90" width="60" height="20" rx="2" fill="#7F3BFF"/>
  <rect x="190" y="115" width="60" height="15" rx="2" fill="#4A5568"/>
  <rect x="190" y="135" width="60" height="15" rx="2" fill="#E53E3E" opacity="0.7"/>
  <rect x="190" y="155" width="60" height="15" rx="2" fill="#4A5568"/>
  
  <!-- Percy-style comparison -->
  <rect x="290" y="90" width="60" height="20" rx="2" fill="#7F3BFF"/>
  <rect x="290" y="115" width="60" height="15" rx="2" fill="#4A5568"/>
  <rect x="290" y="135" width="60" height="15" rx="2" fill="#38A169"/>
  <rect x="290" y="155" width="60" height="15" rx="2" fill="#4A5568"/>
  
  <!-- Animated scan lines -->
  <rect x="85" y="0" width="70" height="2" fill="#7F3BFF" opacity="0.6">
    <animate attributeName="y" values="85;195;85" dur="3s" repeatCount="indefinite"/>
  </rect>
  <rect x="185" y="0" width="70" height="2" fill="#7F3BFF" opacity="0.6">
    <animate attributeName="y" values="85;195;85" dur="3s" repeatCount="indefinite"/>
  </rect>
  <rect x="285" y="0" width="70" height="2" fill="#7F3BFF" opacity="0.6">
    <animate attributeName="y" values="85;195;85" dur="3s" repeatCount="indefinite"/>
  </rect>
  
  <!-- Status indicators -->
  <circle cx="120" cy="220" r="6" fill="#38A169"/>
  <circle cx="220" cy="220" r="6" fill="#E53E3E"/>
  <circle cx="320" cy="220" r="6" fill="#38A169"/>
</svg>
